PathFileType	4	(X/Y/Z)	D:\TRACE\spot_10-12-23\spot_arm_body_motion_2_1-platform.trc
DataRate	CameraRate	NumFrames	NumMarkers	Units	OrigDataRate	OrigDataStartFrame	OrigNumFrames
100.00	100.00	      36	5	mm	100.00	5251	      7000
Frame#	Time	Left_Front			Right_Front			Left_Aft			Right_Aft			Post			
		X1	Y1	Z1	X2	Y2	Z2	X3	Y3	Z3	X4	Y4	Z4	X5	Y5	Z5	

5251	52.500	-757.46106	8.68081	-652.02686	809.90283	7.13220	-627.57275	-688.58832	13.41835	486.53293	718.39380	12.40981	589.01160	30.60056	735.72449	-965.18488	
5252	52.510	-756.16602	10.67166	-651.85498	810.92712	8.88617	-627.12836	-687.60425	12.32458	487.03690	719.52399	11.07997	589.40424	32.07219	738.21063	-962.90582	
5253	52.520	-755.27649	12.30327	-651.12482	812.01672	10.64647	-626.70435	-686.48151	11.16395	487.46591	720.44995	9.66436	589.78003	33.12255	740.75311	-960.75488	
5254	52.530	-754.41119	13.88125	-650.66437	813.03699	12.27351	-626.31372	-685.58539	10.10634	487.71094	721.49426	8.27528	590.08893	33.83269	743.17773	-958.59955	
5255	52.540	-753.63458	15.67841	-650.34247	813.91675	13.65944	-625.75391	-684.66211	8.99965	488.21429	722.69800	7.10694	590.62433	35.15993	745.65240	-956.20959	
5256	52.550	-752.43945	17.05828	-649.95215	815.05933	15.48087	-625.33270	-683.66541	7.84447	488.50165	723.34241	5.66515	591.04724	36.86868	748.23956	-953.72565	
5257	52.560	-751.35712	18.87067	-649.50958	816.11304	17.32224	-624.96582	-682.61365	6.77045	489.01828	724.41345	4.33180	591.41455	36.26260	750.53674	-952.01471	
5258	52.570	-750.38922	20.48630	-649.04822	816.99530	18.87372	-624.61469	-681.32977	5.49151	489.41373	725.54285	3.03716	591.77777	37.09638	752.95422	-949.85413	
5259	52.580	-749.47534	22.12593	-648.65808	818.08197	20.35712	-624.12860	-680.63959	4.54693	489.81046	726.56067	1.93698	592.11444	38.01754	755.21576	-947.71259	
5260	52.590	-748.93268	23.80132	-648.34192	818.86121	21.93954	-623.78772	-679.65979	3.32890	490.16464	727.34760	0.48086	592.65192	39.11668	757.39551	-945.52435	
5261	52.600	-747.80811	25.05125	-647.71094	819.74719	23.45601	-623.36462	-678.98035	2.43255	490.35706	728.06390	-0.80661	592.94232	39.88481	759.64569	-943.23608	
5262	52.610	-746.93085	26.80486	-647.39185	820.68860	24.93653	-622.97180	-677.97839	1.32661	490.86304	729.12030	-1.88375	593.17566	40.54185	761.80029	-941.13452	
5263	52.620	-746.01550	28.19373	-647.11981	821.53625	26.39843	-622.69202	-676.98352	0.42628	491.08243	729.98926	-3.05545	593.38843	41.49382	763.79767	-939.29346	
5264	52.630	-745.32782	29.57924	-646.79059	822.30328	27.52675	-622.15503	-676.17780	-0.74199	491.41125	730.77863	-4.46642	593.84247	42.60578	766.02032	-937.04871	
5265	52.640	-744.30823	31.13038	-646.29980	823.35254	29.27400	-621.78723	-675.24731	-1.62185	491.74594	731.75494	-5.53981	593.97412	43.48183	768.09247	-934.91455	
5266	52.650	-743.08911	32.41572	-645.83130	824.12402	30.79710	-621.41650	-674.38623	-2.73867	492.13995	732.67773	-6.59313	594.61743	44.26110	770.19324	-933.21118	
5267	52.660	-742.60120	33.97961	-645.24231	824.92902	32.22787	-620.85754	-673.87494	-3.62221	492.50873	733.42932	-7.87662	594.85742	45.07030	772.49030	-931.41943	
5268	52.670	-742.00037	35.58269	-645.11102	825.74536	33.64583	-620.62372	-672.85748	-4.78663	492.79065	734.06342	-9.29242	595.18689	45.87754	774.76465	-929.47675	
5269	52.680	-741.16254	36.99200	-644.71613	826.57129	35.23965	-620.15936	-672.08795	-5.77331	493.15494	734.97766	-10.40672	595.43500	46.62032	776.70941	-927.49249	
5270	52.690	-740.30768	38.45124	-644.08105	827.21899	36.74494	-619.72784	-671.39026	-6.88522	493.43475	735.81415	-11.57955	595.77289	47.09515	778.87354	-925.44696	
5271	52.700	-739.75214	39.97731	-643.36554	827.73761	37.90878	-619.30994	-670.63684	-7.97333	493.85788	736.17462	-12.98490	595.88776	47.95493	781.05670	-923.43011	
5272	52.710	-738.96252	41.55200	-643.07239	828.77887	39.68107	-618.67828	-669.96234	-8.98261	494.14182	737.01270	-14.22564	596.59454	48.79035	783.34460	-921.30646	
5273	52.720	-738.31506	43.13651	-642.78198	829.33160	41.22673	-618.28925	-669.28766	-10.11478	494.47400	737.78723	-15.50055	596.79974	48.96502	785.47607	-919.15900	
5274	52.730	-737.70276	44.57284	-642.51221	829.92572	42.76703	-617.93695	-668.66400	-11.15359	494.87274	738.39801	-16.70220	597.12286	81.96134	706.08545	-930.37207	
5275	52.740	-737.10352	45.91265	-641.90900	830.61066	44.09817	-617.48907	-667.93073	-12.23615	495.12262	738.88257	-17.89308	597.35339	50.30309	789.79333	-914.43774	
5276	52.750	-736.50012	47.45304	-641.42151	831.14063	45.45750	-617.07056	-667.41522	-13.19976	495.42578	739.63068	-18.94823	597.59924	50.82151	791.72742	-911.99615	
5277	52.760	-735.95142	48.75047	-641.00592	831.55377	46.82943	-616.67694	-667.02417	-13.86747	495.71103	740.11212	-20.05139	597.70343	51.37283	793.65668	-909.60254	
5278	52.770	-735.42218	49.89481	-640.69147	832.20782	47.96915	-616.29187	-666.27820	-14.97380	496.05939	740.49493	-21.15256	598.18890	51.86216	795.30963	-907.67322	
5279	52.780	-735.03931	51.15953	-640.27521	832.69867	49.24264	-615.90375	-665.93964	-15.69682	496.29486	741.07166	-22.37364	598.55432	52.46169	796.90564	-905.53088	
5280	52.790	-734.58075	52.48318	-640.13049	832.98291	50.32393	-615.63934	-665.40155	-16.79279	496.57962	741.53168	-23.17773	598.74030	52.77024	798.51202	-903.49268	
5281	52.800	-734.14307	53.61115	-639.74756	833.52209	51.54305	-615.22351	-665.22076	-17.44151	496.55783	742.12378	-24.10101	598.95258	53.11355	800.13202	-901.90295	
5282	52.810	-733.84442	54.72826	-639.27771	833.79846	52.74225	-614.78571	-664.80664	-18.29722	496.88971	742.10291	-25.24081	599.20618	53.54372	801.90643	-900.57654	
5283	52.820	-733.53839	56.03203	-638.95135	834.12726	53.89837	-614.55414	-664.47345	-19.02970	497.20032	742.53070	-26.24182	599.18500	53.89959	803.67169	-899.31531	
5284	52.830	-733.29889	57.10905	-638.49243	834.41223	55.12093	-614.03271	-664.17334	-19.87500	497.36316	742.77747	-27.08100	599.51971	53.82019	805.22961	-898.14105	
5285	52.840	-733.03436	58.23538	-638.05872	834.49927	56.33571	-613.71594	-663.87225	-20.92389	497.65097	742.98053	-28.05774	599.73047	54.26686	806.85211	-897.02185	
5286	52.850	-732.88464	59.16301	-637.69836	834.67340	57.49581	-613.46069	-663.93835	-21.60296	497.95126	742.98120	-29.10386	599.91321	54.31877	808.51178	-895.74170	
